<svg version="1" xmlns="http://www.w3.org/2000/svg" width="194.667" height="194.667" viewBox="0 0 146.000000 146.000000"><path d="M46.4 21.6c-14.8 8.5-27.9 16.1-29.1 17L15 40v32.9c0 30 .1 32.9 1.8 34.3 3.1 2.7 38.8 22.8 40.4 22.8 2.1 0 3-2.5 1.5-4.3-.7-.8-8.5-5.6-17.5-10.7s-16.5-9.6-16.7-9.9c-.2-.4 2.1-2 5-3.6l5.3-2.8 17.2 9.8c9.4 5.4 17.3 10.2 17.6 10.7.4.6.6 5 .6 9.8-.1 10.7.7 11.9 6.4 8.8 4-2.1 40-22.9 46.4-26.7 1.9-1.1 4.2-2.4 5-2.8.8-.3 1.8-1.1 2.2-1.7.4-.6.8-15.8.8-33.7 0-24.9-.3-32.9-1.2-33.7-1.3-1-14.6-8.8-23.8-14-5.4-3-27.6-15.9-30.6-17.8-1.9-1.2-4.5.1-29 14.2zm23.6-.3c0 5.9-.2 6.5-2.7 7.8C56.3 34.7 48 40.3 48 42c0 1 .6 2 1.3 2.3 1.1.4 12.4-5.1 18.5-9.1l2.2-1.4v13l-9 5.1c-4.9 2.8-9.2 5.1-9.5 5.1-.4 0-26.7-14.8-27.3-15.5C23.8 41.1 50 26 51.1 26c.5 0 .9-.5.9-1 0-.6.4-1 .9-1s4.4-2 8.7-4.5c4.4-2.5 8-4.5 8.2-4.5.1 0 .2 2.8.2 6.3zm25.1 4.3c10.1 5.8 20.4 11.7 22.8 13.1l4.4 2.5-4.7 2.9c-2.5 1.6-5.2 2.9-6 2.9-.8 0-4.1-1.5-7.3-3.4-10.4-6-14.7-8.5-21.5-12.3L76 27.5v-6.3c0-3.4.1-6.2.3-6.2.2 0 8.6 4.8 18.8 10.6zm.6 19.7c5.1 2.8 9.3 5.4 9.3 5.7 0 .3-2.4 1.9-5.3 3.4l-5.3 2.9-9.2-5.4-9.2-5.3V34l5.3 3c2.8 1.7 9.4 5.4 14.4 8.3zm-70 3.8c2.1 1.2 4.3 2.5 4.9 3 .8.6 1.2 7.4 1.2 20.8.1 22 .5 20.6-7 24.9L21 99.9V89c-.1-6.1-.1-16.6-.1-23.5 0-17.9.1-18.5.6-18.5.2 0 2.1.9 4.2 2.1zM125 75.3v28.2l-5.7 3.3c-6.8 3.8-11.2 6.3-29 16.6-7.3 4.2-13.5 7.6-13.8 7.6-.3 0-.5-2.8-.3-6.2l.3-6.1 17-9.8c9.4-5.4 17.5-9.9 18.2-9.9.7 0 2.8.9 4.7 2 3.2 1.7 3.7 1.8 5.1.4 1.9-1.9 1.3-2.8-3.4-5.9l-3.8-2.3V72.7c0-17.8.3-20.6 1.6-21.1.9-.3 3-1.4 4.6-2.5 1.7-1.1 3.3-2 3.8-2 .4-.1.7 12.6.7 28.2zM70.2 55.6c.2.9.1 4 0 7l-.4 5.2-5.5-3.2c-3-1.8-5.4-3.7-5.2-4.2.2-.9 8.7-6.2 10.1-6.3.3-.1.8.6 1 1.5zm12.4 1.5c3 1.7 5.4 3.4 5.4 3.7 0 .4-1 1.2-2.3 1.8-1.2.6-3.9 2.1-5.9 3.3L76 68.2v-7.1c0-3.9.3-7.1.6-7.1.4 0 3.1 1.4 6 3.1zm-35.5 4.6c2.2 1.8 2.1 20.5-.1 22.7-2.3 2.2-8.9 5.6-9.3 4.8-.3-.6-.1-32.4.2-32.9.2-.4 7.4 3.9 9.2 5.4zm61.5 10.8c0 9.1-.4 16.5-.9 16.5-.4 0-2.9-1.2-5.5-2.8-4.7-2.7-4.7-2.7-4.7-7.9.1-6.9-.8-9.3-3.4-8.6-2 .5-2.3 1.3-2.3 7.5-.1 1.6-.2 2.8-.4 2.8s-2.6-1.4-5.4-3c-2.8-1.7-5.6-3-6.2-3-.8 0-.8-.3-.3-.9.7-.7 28.6-17.1 29-17.1.1 0 .1 7.4.1 16.5zM65.1 74c-2.7 2.2-8.4 5.4-9.6 5.5-.9 0-1.6-11.2-.8-12.7.2-.4 3 .7 6.3 2.5 5.7 3 5.9 3.3 4.1 4.7zm21.6 10.3c1.8 1.3 1 2.2-5.2 5.5l-5.5 3V77.9l4.8 2.7c2.6 1.5 5.3 3.2 5.9 3.7zM70 86v6.9l-5.2-3c-2.9-1.7-5.7-3.4-6.1-3.9-.8-.7 8.7-6.9 10.6-7 .4 0 .7 3.1.7 7zm-8.8 8.5l8.8 5v6.2c0 5.6-.2 6.1-2 5.6-1.1-.3-2-.9-2-1.4 0-.5-.4-.9-.9-.9C63.6 109 41 95.6 41 94.8c0-.5.6-.8 1.3-.9.6 0 2.8-1.1 4.7-2.4 1.9-1.3 4-2.3 4.5-2.2.6.1 4.9 2.4 9.7 5.2zm38.8-2.9c2.8 1.4 5 2.9 5 3.3 0 .6-20.8 12.9-28.2 16.8-.5.2-.8-2.4-.8-5.9v-6.3l9.3-5.2c5-2.9 9.3-5.3 9.5-5.3.1 0 2.5 1.2 5.2 2.6z"/></svg>